<?xml version="1.0" encoding="UTF-8"?>
<svg width="40" height="40" viewBox="0 0 40 40" fill="none" xmlns="http://www.w3.org/2000/svg">
    <!-- 主体圆形背景 -->
    <circle cx="20" cy="20" r="18" fill="#111111" stroke="#FF9900" stroke-width="2"/>
    
    <!-- 主体形状 -->
    <path d="M15 12C15 10.3431 16.3431 9 18 9H22C23.6569 9 25 10.3431 25 12V28C25 29.6569 23.6569 31 22 31H18C16.3431 31 15 29.6569 15 28V12Z" fill="#FF9900"/>
    
    <!-- 顶部圆形 -->
    <circle cx="20" cy="8" r="3" fill="#FF9900"/>
    
    <!-- 装饰性曲线 -->
    <path d="M18 15C18 15 19 14 20 14C21 14 22 15 22 15" stroke="white" stroke-width="2" stroke-linecap="round"/>
    
    <!-- 底部装饰 -->
    <path d="M17 25C17 25 19 27 20 27C21 27 23 25 23 25" stroke="white" stroke-width="2" stroke-linecap="round"/>
</svg>
