<svg xmlns="http://www.w3.org/2000/svg" viewBox="0 0 200 200">
  <circle cx="100" cy="100" r="80" fill="#111111" stroke="#FF9900" stroke-width="5"/>
  <path d="M70 70C70 63.4 75.4 58 82 58H118C124.6 58 130 63.4 130 70V130C130 136.6 124.6 142 118 142H82C75.4 142 70 136.6 70 130V70Z" fill="#FF9900"/>
  <path d="M85 95L115 95L115 105L85 105L85 95Z" fill="white"/>
  <circle cx="100" cy="100" r="90" stroke="#FF9900" stroke-width="2" fill="none" stroke-dasharray="5 5" class="mining-circle"/>
  
  <!-- Animated particles -->
  <g class="particles">
    <circle cx="100" cy="70" r="3" fill="#FF9900" opacity="0.8">
      <animate attributeName="cy" from="70" to="40" dur="2s" repeatCount="indefinite" />
      <animate attributeName="opacity" from="0.8" to="0" dur="2s" repeatCount="indefinite" />
    </circle>
    <circle cx="120" cy="80" r="2" fill="#FF9900" opacity="0.6">
      <animate attributeName="cx" from="120" to="140" dur="2.5s" repeatCount="indefinite" />
      <animate attributeName="cy" from="80" to="60" dur="2.5s" repeatCount="indefinite" />
      <animate attributeName="opacity" from="0.6" to="0" dur="2.5s" repeatCount="indefinite" />
    </circle>
    <circle cx="80" cy="80" r="2.5" fill="#FF9900" opacity="0.7">
      <animate attributeName="cx" from="80" to="60" dur="2.2s" repeatCount="indefinite" />
      <animate attributeName="cy" from="80" to="60" dur="2.2s" repeatCount="indefinite" />
      <animate attributeName="opacity" from="0.7" to="0" dur="2.2s" repeatCount="indefinite" />
    </circle>
    <circle cx="100" cy="130" r="3" fill="#FF9900" opacity="0.8">
      <animate attributeName="cy" from="130" to="160" dur="2.3s" repeatCount="indefinite" />
      <animate attributeName="opacity" from="0.8" to="0" dur="2.3s" repeatCount="indefinite" />
    </circle>
    <circle cx="130" cy="110" r="2" fill="#FF9900" opacity="0.6">
      <animate attributeName="cx" from="130" to="150" dur="1.8s" repeatCount="indefinite" />
      <animate attributeName="cy" from="110" to="130" dur="1.8s" repeatCount="indefinite" />
      <animate attributeName="opacity" from="0.6" to="0" dur="1.8s" repeatCount="indefinite" />
    </circle>
    <circle cx="70" cy="110" r="2.5" fill="#FF9900" opacity="0.7">
      <animate attributeName="cx" from="70" to="50" dur="2.4s" repeatCount="indefinite" />
      <animate attributeName="cy" from="110" to="130" dur="2.4s" repeatCount="indefinite" />
      <animate attributeName="opacity" from="0.7" to="0" dur="2.4s" repeatCount="indefinite" />
    </circle>
  </g>
</svg>
